<?xml version="1.0" encoding="utf-8"?>
<!-- Generator: Adobe Illustrator 15.0.0, SVG Export Plug-In  -->
<!DOCTYPE svg PUBLIC "-//W3C//DTD SVG 1.1//EN" "http://www.w3.org/Graphics/SVG/1.1/DTD/svg11.dtd" [
	<!ENTITY ns_flows "http://ns.adobe.com/Flows/1.0/">
]>
<svg version="1.1"
	 xmlns="http://www.w3.org/2000/svg" xmlns:xlink="http://www.w3.org/1999/xlink" xmlns:a="http://ns.adobe.com/AdobeSVGViewerExtensions/3.0/"
	 x="0px" y="0px" width="196px" height="178px" viewBox="-20.6 -6.9 196 178" enable-background="new -20.6 -6.9 196 178"
	 xml:space="preserve">
<defs>
</defs>
<path fill="#54486F" d="M79.5,0C52.4,0,30.4,22,30.4,49.1c0,14.9,6.7,28.3,17.2,37.3c1,0.9,2.1,1.7,3.2,2.6c0.3,0.2,0.6,0.4,0.9,0.6
	c1.7,1.2,3.5,2.3,5.3,3.2c0.1,0,0.2,0.1,0.3,0.1c1.2,0.6,2.5,1.2,3.8,1.8c1,0.4,2,0.8,3,1.1c4.8,1.6,10,2.5,15.4,2.5
	c6.3,0,12.3-1.2,17.9-3.4c1-0.4,2-0.8,2.9-1.3c1.2-0.6,2.3-1.2,3.4-1.8c0.1,0,0.2-0.1,0.2-0.1c1.7-1,3.4-2.1,5-3.3
	c0.3-0.2,0.6-0.5,0.9-0.7c1-0.8,2-1.6,2.9-2.5c9.7-8.9,15.8-21.8,15.8-36C128.6,22,106.6,0,79.5,0z M102.2,81.9
	c-0.9,0.7-1.9,1.3-2.8,1.8c-1,0.6-2.1,1.1-3.2,1.6c-4.2,2-8.8,3.2-13.7,3.6h-0.1C81.5,89,80.5,89,79.5,89h-0.3
	c-5.1,0-9.9-1-14.4-2.8c-1-0.4-1.9-0.8-2.9-1.2c0,0,0,0,0,0c-1.2-0.6-2.3-1.2-3.5-2h0c-11.3-7-18.8-19.6-18.8-33.9
	c0-22,17.9-39.9,39.9-39.9c22,0,39.9,17.9,39.9,39.9C119.4,62.7,112.6,74.7,102.2,81.9z"/>
<path fill="#54486F" d="M164.9,154.7c-1.2-6.6-10.5-53.3-52.1-69.5c-1.2-0.5-2.5-0.9-3.8-1.4c-1.2-0.4-2.5-0.8-3.8-1.1
	c-1-0.3-2-0.5-3-0.7c-0.9,0.7-1.9,1.3-2.8,1.8c-1,0.6-2.1,1.1-3.2,1.6c-4.2,2-8.8,3.2-13.7,3.6c5.2,0,10.1,0.5,14.8,1.4
	c1.8,0.3,3.6,0.8,5.4,1.2c0.3,0.1,0.7,0.2,1,0.3c35.4,10.2,47.6,46,51,59.6H9.3c1.9-37.1,26.6-52.4,48-58.5c0.3-0.1,0.7-0.2,1-0.3
	c2-0.6,4-1.1,5.9-1.5c6.6-1.4,12-1.9,15-2.1c-5.1,0-9.9-1-14.4-2.8c-1-0.4-1.9-0.8-2.9-1.2c0,0,0,0,0,0c-1.2-0.6-2.3-1.2-3.5-2h0
	c-0.9,0.2-1.8,0.5-2.7,0.7c-1.4,0.4-2.8,0.8-4.1,1.2c-1.4,0.5-2.8,0.9-4.1,1.4C16.8,97.9,0,122.3,0,156c0,2.5,2.1,4.6,4.6,4.6h155.9
	c0,0,0,0,0,0c2.6,0,4.6-2.1,4.6-4.6C165.1,155.6,165.1,155.1,164.9,154.7z"/>
</svg>
