<?xml version="1.0" encoding="utf-8"?>
<!-- Generator: Adobe Illustrator 15.0.0, SVG Export Plug-In  -->
<!DOCTYPE svg PUBLIC "-//W3C//DTD SVG 1.1//EN" "http://www.w3.org/Graphics/SVG/1.1/DTD/svg11.dtd" [
	<!ENTITY ns_flows "http://ns.adobe.com/Flows/1.0/">
]>
<svg version="1.1"
	 xmlns="http://www.w3.org/2000/svg" xmlns:xlink="http://www.w3.org/1999/xlink" xmlns:a="http://ns.adobe.com/AdobeSVGViewerExtensions/3.0/"
	 x="0px" y="0px" width="197px" height="184px" viewBox="-8.9 -5.7 197 184" enable-background="new -8.9 -5.7 197 184"
	 xml:space="preserve">
<defs>
</defs>
<path fill="#54486F" d="M164.4,161.8L117.1,108c9.7-11.8,15-26.4,15-41.9c0-36.4-29.6-66-66-66S0,29.6,0,66s29.6,66,66,66
	c14.6,0,28.5-4.7,39.9-13.4l46.8,53.3c1.5,1.7,3.7,2.6,5.8,2.6c1.8,0,3.6-0.6,5.1-1.9C166.9,169.8,167.2,165,164.4,161.8z M12.8,66
	c0-29.3,23.9-53.2,53.2-53.2c29.3,0,53.2,23.9,53.2,53.2c0,14.2-5.5,27.6-15.6,37.7c-10.1,10-23.4,15.6-37.6,15.6
	C36.7,119.3,12.8,95.4,12.8,66z"/>
</svg>
