<?xml version="1.0" encoding="utf-8"?>
<!-- Generated by IcoMoon.io -->
<!DOCTYPE svg PUBLIC "-//W3C//DTD SVG 1.1//EN" "http://www.w3.org/Graphics/SVG/1.1/DTD/svg11.dtd">
<svg version="1.1" xmlns="http://www.w3.org/2000/svg" xmlns:xlink="http://www.w3.org/1999/xlink" width="26" height="24" viewBox="0 0 26 24">
<path fill="#54486f" d="M13.497 0.93c-3.654 0-6.62 2.966-6.62 6.62 0 2.009 0.903 3.816 2.319 5.029 0.135 0.121 0.283 0.229 0.431 0.351 0.040 0.027 0.081 0.054 0.121 0.081 0.229 0.162 0.472 0.31 0.715 0.431 0.013 0 0.027 0.013 0.040 0.013 0.162 0.081 0.337 0.162 0.512 0.243 0.135 0.054 0.27 0.108 0.404 0.148 0.647 0.216 1.348 0.337 2.076 0.337 0.849 0 1.658-0.162 2.413-0.458 0.135-0.054 0.27-0.108 0.391-0.175 0.162-0.081 0.31-0.162 0.458-0.243 0.013 0 0.027-0.013 0.027-0.013 0.229-0.135 0.458-0.283 0.674-0.445 0.040-0.027 0.081-0.067 0.121-0.094 0.135-0.108 0.27-0.216 0.391-0.337 1.308-1.2 2.13-2.939 2.13-4.854 0.013-3.667-2.953-6.634-6.607-6.634zM16.557 11.973c-0.121 0.094-0.256 0.175-0.378 0.243-0.135 0.081-0.283 0.148-0.431 0.216-0.566 0.27-1.187 0.431-1.847 0.485h-0.013c-0.121 0.013-0.256 0.013-0.391 0.013h-0.040c-0.688 0-1.335-0.135-1.942-0.378-0.135-0.054-0.256-0.108-0.391-0.162 0 0 0 0 0 0-0.162-0.081-0.31-0.162-0.472-0.27v0c-1.524-0.944-2.535-2.643-2.535-4.571 0-2.966 2.413-5.38 5.38-5.38s5.38 2.413 5.38 5.38c0 1.834-0.917 3.452-2.319 4.422z"></path>
<path fill="#54486f" d="M25.011 21.789c-0.162-0.89-1.416-7.187-7.025-9.371-0.162-0.067-0.337-0.121-0.512-0.189-0.162-0.054-0.337-0.108-0.512-0.148-0.135-0.040-0.27-0.067-0.404-0.094-0.121 0.094-0.256 0.175-0.378 0.243-0.135 0.081-0.283 0.148-0.431 0.216-0.566 0.27-1.187 0.431-1.847 0.485 0.701 0 1.362 0.067 1.996 0.189 0.243 0.040 0.485 0.108 0.728 0.162 0.040 0.013 0.094 0.027 0.135 0.040 4.773 1.375 6.418 6.202 6.876 8.036h-19.604c0.256-5.002 3.587-7.065 6.472-7.888 0.040-0.013 0.094-0.027 0.135-0.040 0.27-0.081 0.539-0.148 0.796-0.202 0.89-0.189 1.618-0.256 2.022-0.283-0.688 0-1.335-0.135-1.942-0.378-0.135-0.054-0.256-0.108-0.391-0.162 0 0 0 0 0 0-0.162-0.081-0.31-0.162-0.472-0.27v0c-0.121 0.027-0.243 0.067-0.364 0.094-0.189 0.054-0.378 0.108-0.553 0.162-0.189 0.067-0.378 0.121-0.553 0.189-4.139 1.551-6.404 4.84-6.404 9.384 0 0.337 0.283 0.62 0.62 0.62h21.020c0 0 0 0 0 0 0.351 0 0.62-0.283 0.62-0.62 0-0.054 0-0.121-0.027-0.175z"></path>
</svg>
