<?xml version="1.0" encoding="utf-8"?>
<!-- Generated by IcoMoon.io -->
<!DOCTYPE svg PUBLIC "-//W3C//DTD SVG 1.1//EN" "http://www.w3.org/Graphics/SVG/1.1/DTD/svg11.dtd">
<svg version="1.1" xmlns="http://www.w3.org/2000/svg" xmlns:xlink="http://www.w3.org/1999/xlink" width="26" height="24" viewBox="0 0 26 24">
<path fill="#54486f" d="M20.643 11.649h-12.256v-5.609c0-2.804 2.4-3.802 4.476-3.816h0.027c1.888 0.013 4.072 1.011 4.072 3.816 0 0.297 0.243 0.539 0.539 0.539s0.539-0.243 0.539-0.539c0-2.912-2.063-4.867-5.151-4.894h-0.054c-3.303 0.013-5.528 1.982-5.528 4.894v5.609h-3.020c-0.297 0-0.539 0.243-0.539 0.539v9.856c0 0.297 0.243 0.539 0.539 0.539h16.355c0.297 0 0.539-0.243 0.539-0.539v-9.856c0-0.297-0.243-0.539-0.539-0.539zM20.103 21.506h-15.276v-8.778h15.276v8.778z"></path>
</svg>
