<?xml version="1.0" encoding="utf-8"?>
<!-- Generated by IcoMoon.io -->
<!DOCTYPE svg PUBLIC "-//W3C//DTD SVG 1.1//EN" "http://www.w3.org/Graphics/SVG/1.1/DTD/svg11.dtd">
<svg version="1.1" xmlns="http://www.w3.org/2000/svg" xmlns:xlink="http://www.w3.org/1999/xlink" width="26" height="24" viewBox="0 0 26 24">
<path fill="#54486f" d="M22.604 21.848l-6.17-7.017c1.265-1.539 1.957-3.443 1.957-5.465 0-4.748-3.861-8.609-8.609-8.609s-8.622 3.848-8.622 8.596 3.861 8.609 8.609 8.609c1.904 0 3.717-0.613 5.204-1.748l6.104 6.952c0.196 0.222 0.483 0.339 0.757 0.339 0.235 0 0.47-0.078 0.665-0.248 0.43-0.365 0.47-0.991 0.104-1.409zM2.83 9.352c0-3.822 3.117-6.939 6.939-6.939s6.939 3.117 6.939 6.939c0 1.852-0.717 3.6-2.035 4.917-1.317 1.304-3.052 2.035-4.904 2.035-3.822 0-6.939-3.117-6.939-6.952z"></path>
</svg>
